<?xml version="1.0" encoding="UTF-8"?><svg id="a" xmlns="http://www.w3.org/2000/svg" viewBox="0 0 697.32283 85.60631"><defs><style>.b{fill:none;stroke:#1d1d1b;stroke-miterlimit:10;stroke-width:5.66929px;}</style></defs><path class="b" d="M2.83465,22.67717V2.83465H138.89764V22.67717h-42.51969c-7.55907,0-11.3386,.94488-11.33858,8.50394v51.02362h-28.34646V22.67717H2.83465Z"/><path class="b" d="M385.51181,82.20472h-31.1811V14.17323c8.50396-7.55905,18.89766-11.33858,31.1811-11.33858V82.20472Z"/><path class="b" d="M532.91339,19.84252l-76.53543,45.35433h87.87402v17.00787h-136.06299c-.29267-7.17911,2.62555-11.07814,11.33858-17.00787l79.37008-45.35433h-90.70866V2.83465h136.06302c0,8.50395-3.77954,12.28347-11.33861,17.00787Z"/><polygon class="b" points="564.09449 2.83465 589.6063 2.83465 629.29134 39.68504 668.97638 2.83465 694.48819 2.83465 694.48819 5.66929 643.46457 53.85827 643.46457 82.20472 615.11811 82.20472 615.11811 53.85827 564.09449 5.66929 564.09449 2.83465"/><path class="b" d="M187.08661,11.90552s3.7087,4.90872,9.4607,12.67804c5.79947,7.83344,13.67609,18.5749,21.92286,30.12513,5.3654-7.51156,11.166-15.63239,16.53495-23.14877l-9.6508-14.26858-9.92126-14.4567h19.84252c2.58761,.26506,5.13512,1.12676,7.53363,2.62521s4.64801,3.63364,6.6396,6.44566c0,0,14.83483,20.20183,31.18112,43.08665,16.34623-22.88478,36.85037-51.59058,36.85037-51.59058h25.51181l-56.69291,79.37008h-14.17323s-11.47172-16.06041-24.09449-33.73228l-24.09448,33.73228h-14.17323L153.07087,3.40159s11.49284,0,19.84251,0c5.26338,.53915,10.1548,2.66253,14.17323,8.50394Z"/></svg>